<svg width="1211" height="300" viewBox="0 0 1211 300" fill="none" xmlns="http://www.w3.org/2000/svg">
<g opacity="0.2">
<path d="M0 0L2.18494 11.3384L10.9118 3.77699L0 0ZM960 84L959.44 84.8286L960 84ZM1210 300L1210.28 288.456L1200.14 293.988L1210 300ZM5.13055 7.44839C29.5427 36.0284 50.3934 65.3802 72.1921 92.7829C93.9577 120.144 116.6 145.466 144.444 165.74C200.198 206.336 276.608 226.549 408.176 202.984L407.824 201.016C276.613 224.516 200.807 204.305 145.621 164.123C117.995 144.008 95.4852 118.852 73.7573 91.5378C52.0625 64.2658 31.0777 34.7461 6.65129 6.14941L5.13055 7.44839ZM408.176 202.984C542.391 178.946 625.143 111.787 701.732 69.626C740.054 48.5306 776.816 33.6858 817.788 33.4062C858.748 33.1267 904.053 47.4046 959.44 84.8286L960.56 83.1714C904.947 45.5954 859.252 31.1233 817.774 31.4063C776.309 31.6892 739.196 46.7194 700.768 67.874C623.857 110.213 541.609 177.054 407.824 201.016L408.176 202.984ZM959.44 84.8286C1119.72 193.126 1186.57 263.866 1204.84 292.632L1206.53 291.56C1188.02 262.427 1120.88 191.495 960.56 83.1714L959.44 84.8286Z" fill="white" fill-opacity="0.4"/>
<path d="M0 48L3.01749 59.1458L11.1613 50.9597L0 48ZM936.992 118.56L936.489 119.424L936.992 118.56ZM1181 300L1180.41 288.468L1170.72 294.748L1181 300ZM5.6648 55.046C29.3822 79.0149 49.6601 103.591 70.9106 126.547C92.1239 149.462 114.217 170.655 141.383 187.613C195.762 221.559 270.267 238.415 398.374 218.668L398.069 216.692C270.257 236.393 196.284 219.527 142.442 185.917C115.497 169.096 93.5445 148.052 72.3782 125.188C51.2491 102.364 30.8137 77.6181 7.08645 53.6393L5.6648 55.046ZM398.374 218.668C529.354 198.479 610.107 142.074 684.871 106.654C722.272 88.9345 758.169 76.4562 798.187 76.2212C838.196 75.9863 882.431 87.9897 936.489 119.424L937.494 117.696C883.212 86.1303 838.628 73.9837 798.176 74.2213C757.732 74.4588 721.525 87.0755 684.015 104.846C608.958 140.406 528.666 196.561 398.069 216.692L398.374 218.668ZM936.489 119.424C1091 209.274 1156.54 268.344 1175.31 293.05L1176.9 291.84C1157.88 266.797 1092.04 207.563 937.494 117.696L936.489 119.424Z" fill="white" fill-opacity="0.4"/>
</g>
</svg>
